# xmcd
#
# Track frame offsets: 
#        150
#        13800
#        23917
#        36278
#        48952
#        61287
#        71123
#        82013
#        93646
#        107423
#        119540
#        130512
#        142246
#        154816
#        165378
#        178161
#        189503
#        201478
#        214778
#        227848
#        237234
#        247338
#        258247
#        270459
#        283046
#        296039
#        308625
#        321211
#        330883
#
# Disc length: 4568 seconds
#
# Revision: 1
# Processed by: cddbd v1.5.2PL0 Copyright (c) Steve Scherf et al.
# Submitted via: ExactAudioCopyFreeDBPlugin 1.0
#
DISCID=b311d61d
DTITLE=Various Artist - Jump Blues Jamaica Way:  Jamaican Sound Syste
DTITLE=m Classics, 1945-1960
DYEAR=2014
DGENRE=Rhythm and Blues
TTITLE0=Gene Ammons - Ammons Boogie
TTITLE1=Joe Fritz - They Were Right
TTITLE2=Billy Wright - When the Wagon Comes
TTITLE3=Jimmy McCracklin - I Found That Woman
TTITLE4=Dimples Harris - Call Me Daddy
TTITLE5=The Griffin Brothers - Comin' Home
TTITLE6=Joe "Papoose" Fritz - Real Fine Girl
TTITLE7=Little Caesar - Long Time Baby
TTITLE8=The Clovers - Middle of the Night
TTITLE9=Fats Domino - Please Don't Leave Me
TTITLE10=Shirley and Lee - Baby
TTITLE11=Amos Milburn - Let's Have a Party
TTITLE12=Hal Paige - Big Foot May
TTITLE13=The Dodgers - Let's Make a Whole Lot of Love
TTITLE14=Lester Williams - Crazy 'Bout You Baby
TTITLE15=Jimmy Liggins - Talking That Talk
TTITLE16=Johnny Ace - Burley Cutie
TTITLE17=Tiny Grimes - Second Floor Rear
TTITLE18=Willie Mabon - Poison Ivy
TTITLE19=Jimmy Wilson - Jumpin' from Six to Six
TTITLE20=The Penguins - Hey Señorita
TTITLE21=Buddy Griffin - Oh, What a Smile Can Do (ft Claudia Swann)
TTITLE22=The Charms - My Baby Dearest Darling
TTITLE23=Tony Allen and the Champs - Nite Owl
TTITLE24=Rosco Gordon - The Chicken
TTITLE25=The Lollypoppers - Miss Selma's Boogie
TTITLE26=Varetta Dillard - So Many Ways
TTITLE27=Chuck Higgins - Here I'm Is
TTITLE28=Alonzo Scales - My Baby Likes to Shuffle
EXTD=
EXTT0=
EXTT1=
EXTT2=
EXTT3=
EXTT4=
EXTT5=
EXTT6=
EXTT7=
EXTT8=
EXTT9=
EXTT10=
EXTT11=
EXTT12=
EXTT13=
EXTT14=
EXTT15=
EXTT16=
EXTT17=
EXTT18=
EXTT19=
EXTT20=
EXTT21=
EXTT22=
EXTT23=
EXTT24=
EXTT25=
EXTT26=
EXTT27=
EXTT28=
PLAYORDER=
